HIERARCHY
ROOT Hips
{
  OFFSET 13.6774 106.653 -34.4427
  CHANNELS 6 Xposition Yposition Zposition Zrotation Xrotation Yrotation
  JOINT ToSpine
  {
    OFFSET -2.69724 7.43032 -0.144315
    CHANNELS 3 Zrotation Xrotation Yrotation
    JOINT Spine
    {
      OFFSET -0.0310711 10.7595 1.96963
      CHANNELS 3 Zrotation Xrotation Yrotation
      JOINT Spine1
      {
        OFFSET 19.9056 3.91189 0.764692
        CHANNELS 3 Zrotation Xrotation Yrotation
        JOINT Neck
        {
          OFFSET 25.9749 7.03908 -0.130764
          CHANNELS 3 Zrotation Xrotation Yrotation
          JOINT Head
          {
            OFFSET 9.52751 0.295786 -0.907742
            CHANNELS 3 Zrotation Xrotation Yrotation
            End Site
            {
              OFFSET 16.4037 0.713936 2.7358
            }
          }
        }
        JOINT LeftShoulder
        {
          OFFSET 17.7449 4.33886 11.7777
          CHANNELS 3 Zrotation Xrotation Yrotation
          JOINT LeftArm
          {
            OFFSET 0.911315 1.27913 9.80584
            CHANNELS 3 Zrotation Xrotation Yrotation
            JOINT LeftForeArm
            {
              OFFSET 28.6126 1.18197 -3.53199
              CHANNELS 3 Zrotation Xrotation Yrotation
              JOINT LeftHand
              {
                OFFSET 27.5088 0.0218783 0.327423
                CHANNELS 3 Zrotation Xrotation Yrotation
                End Site
                {
                  OFFSET 18.6038 -0.000155887 0.382096
                }
              }
            }
          }
        }
        JOINT RightShoulder
        {
          OFFSET 17.1009 2.89543 -12.2328
          CHANNELS 3 Zrotation Xrotation Yrotation
          JOINT RightArm
          {
            OFFSET 1.4228 0.178766 -10.211
            CHANNELS 3 Zrotation Xrotation Yrotation
            JOINT RightForeArm
            {
              OFFSET 28.733 1.87905 2.64907
              CHANNELS 3 Zrotation Xrotation Yrotation
              JOINT RightHand
              {
                OFFSET 27.4588 0.290562 -0.101845
                CHANNELS 3 Zrotation Xrotation Yrotation
                End Site
                {
                  OFFSET 17.8396 -0.255518 -0.000602873
                }
              }
            }
          }
        }
      }
    }
  }
  JOINT LeftUpLeg
  {
    OFFSET -5.61296 -2.22332 -10.2353
    CHANNELS 3 Zrotation Xrotation Yrotation
    JOINT LeftLeg
    {
      OFFSET 2.56703 -44.7417 -7.93097
      CHANNELS 3 Zrotation Xrotation Yrotation
      JOINT LeftFoot
      {
        OFFSET 3.16933 -46.5642 -3.96578
        CHANNELS 3 Zrotation Xrotation Yrotation
        JOINT LeftToeBase
        {
          OFFSET 0.346054 -6.02161 12.8035
          CHANNELS 3 Zrotation Xrotation Yrotation
          End Site
          {
            OFFSET 0.134235 -1.35082 5.13018
          }
        }
      }
    }
  }
  JOINT RightUpLeg
  {
    OFFSET -5.7928 -1.72406 10.6446
    CHANNELS 3 Zrotation Xrotation Yrotation
    JOINT RightLeg
    {
      OFFSET -2.57161 -44.7178 -7.85259
      CHANNELS 3 Zrotation Xrotation Yrotation
      JOINT RightFoot
      {
        OFFSET -3.10148 -46.5936 -4.03391
        CHANNELS 3 Zrotation Xrotation Yrotation
        JOINT RightToeBase
        {
          OFFSET -0.0828122 -6.13587 12.8035
          CHANNELS 3 Zrotation Xrotation Yrotation
          End Site
          {
            OFFSET -0.131328 -1.35082 5.13018
          }
        }
      }
    }
  }
}
MOTION
Frames: 21
Frame Time: 0.03333333333333333
0.0000 93.1000 0.0000 2.2652 -56.8189 -88.9726 -70.9692 0.0010 87.8665 91.4607 63.3878 -10.3628 3.2898 10.8878 8.8866 -129.0605 20.8784 172.6971 -146.2060 60.1916 -175.1634 -0.3621 -16.5953 -18.0358 -123.9023 38.5496 -101.7303 14.3319 -7.9338 -113.8530 -0.0289 0.1888 -0.0048 -1.1564 2.9958 25.4388 -72.4295 -41.8952 133.9821 8.2187 4.9081 119.7132 0.1680 0.2332 0.1060 -62.8956 7.1761 100.0323 -0.9690 27.0247 1.6360 -4.2874 -18.5567 -2.1592 5.2248 -13.3759 8.1486 -11.8305 10.1644 102.8921 4.6076 57.9187 0.5062 -6.7741 -6.9206 1.5585 1.3070 -14.9074 -3.2450 
0.0000 93.1000 0.0000 10.2077 -56.9504 -81.3268 -70.9770 0.0432 87.8750 90.7462 63.6792 -9.5314 3.1064 11.2775 8.3704 -125.9003 20.8015 169.9478 -144.5982 60.2626 -176.0689 -0.5652 -16.7936 -18.2011 -117.7156 40.8927 -107.7471 15.7846 -7.5742 -111.2193 -0.1164 0.3261 -0.3656 -1.1384 3.6849 24.3381 -75.9535 -42.3436 133.7834 9.5336 5.0658 118.7812 -0.2167 0.4508 -0.2529 -61.6910 7.6829 98.8929 -0.5610 25.7913 -0.3937 -3.9521 -16.9923 -2.2844 5.4638 -13.9097 9.6374 -13.5900 6.8859 100.8713 3.8843 55.8052 -0.0972 -6.1738 -7.1914 1.4729 0.6194 -13.3012 -2.5929 
0.0000 93.1000 0.0000 18.1635 -56.6209 -70.9144 -70.9880 0.0648 87.9000 89.3923 64.2636 -7.4049 3.1726 11.9362 7.9872 -123.9231 21.1721 169.8932 -144.1541 61.1205 -175.6918 -0.6034 -16.9750 -18.3162 -112.9784 42.7754 -113.6039 15.3913 -6.2650 -109.0450 -0.0234 0.3622 -0.5412 -0.9942 4.1416 21.3461 -78.6534 -44.5789 133.1685 11.8348 5.6709 117.8142 -0.4151 0.5433 -0.3828 -60.3988 7.9114 98.9678 -0.5120 24.8440 -2.1566 -3.9268 -15.2672 -2.2032 5.5750 -14.0205 10.7212 -15.4477 3.9414 100.1380 2.8611 54.0218 -0.0660 -6.4657 -7.7961 1.5963 0.9440 -12.6026 -1.9960 
0.0000 93.1000 0.0000 26.1140 -55.7543 -62.5898 -71.0026 0.0527 87.9465 86.3897 65.0271 -4.2581 3.2064 12.3073 7.5998 -121.6690 21.0369 167.7400 -144.5622 62.1018 -174.1743 -0.5622 -17.4482 -17.6443 -107.9348 43.8197 -118.5603 15.8940 -6.7104 -106.3771 -0.0293 0.2861 -0.4403 -0.8325 4.6631 18.7982 -82.5700 -45.6066 131.2569 12.6810 6.5378 116.8239 -0.6078 0.4792 -0.4032 -59.6703 8.0671 99.4604 -0.8372 24.1245 -1.3318 -3.9178 -12.1626 -1.8620 6.1563 -15.6457 13.4126 -17.9025 1.2367 97.9494 2.4532 52.3030 -2.0898 -5.4330 -7.8639 1.4074 0.9968 -10.8670 0.1889 
0.0000 93.1000 0.0000 33.0247 -53.9591 -54.6700 -71.0145 0.0549 87.9754 86.6491 65.7160 -3.4986 2.9026 13.0544 7.0824 -120.6715 21.4999 168.2077 -150.7039 63.2076 -170.3009 -0.3652 -16.8468 -16.7751 -101.0287 45.8468 -125.5493 17.2519 -5.7887 -102.6983 -0.0195 0.2307 -0.4213 -0.6982 5.0612 17.4463 -88.6870 -46.6274 127.0407 12.8803 6.8964 115.6016 -0.5586 0.4488 -0.4093 -58.5516 9.0727 99.2053 -1.0631 24.3906 -0.9263 -4.0954 -9.8678 -1.5769 6.8055 -17.1617 12.2209 -19.5270 -2.0961 94.7952 1.3445 48.7615 -0.4941 -5.6538 -7.2235 1.1591 1.0676 -11.1153 0.4266 
0.0000 93.1000 0.0000 39.3012 -51.8914 -47.8321 -71.0332 0.0191 87.9946 87.4595 66.4153 -3.4197 2.6992 13.6866 6.1583 -117.5506 21.4209 165.9614 -152.0307 64.1283 -167.3151 -0.1701 -16.9354 -15.8604 -95.8151 46.8270 -130.7680 18.7730 -4.0548 -99.2348 -0.0623 -0.0080 -0.0859 -0.6789 5.7904 16.5896 -94.7728 -46.7933 121.9059 12.6317 6.1269 115.9883 -0.1420 0.2113 -0.1842 -57.9717 9.9046 99.6829 -1.0961 25.9405 0.9603 -4.2219 -9.1648 -1.2088 5.6755 -14.3373 11.2033 -21.7900 -5.1600 92.3158 3.1172 45.8768 -0.0681 -6.0665 -5.7187 1.0376 1.0473 -10.3294 -0.8450 
0.0000 93.1000 0.0000 43.8405 -49.8118 -41.7090 -71.0633 -0.0059 88.0197 88.2819 66.9679 -2.3099 2.9569 14.1550 6.2754 -115.4476 21.0153 161.6678 -150.4362 65.1844 -166.9256 0.0090 -16.8802 -15.2240 -90.5778 47.0075 -135.8094 19.0267 -3.2707 -97.3336 0.0502 -0.1800 0.0609 -0.6975 6.6188 16.9349 -101.3013 -44.7940 116.7188 12.9930 6.6039 114.9552 0.2647 -0.0076 -0.1092 -57.0334 10.0642 100.0107 -0.7835 26.7535 2.9935 -4.5598 -9.3833 -0.9548 3.8730 -11.2292 8.2859 -24.8198 -6.9263 89.2689 1.1478 42.4859 -2.9575 -7.0430 -3.0819 0.9362 0.5616 -11.7912 0.8495 
0.0000 93.1000 0.0000 47.8576 -47.9650 -37.1765 -71.0695 -0.0250 88.0273 86.1234 67.7801 -0.7667 3.1508 14.7015 6.6746 -113.9157 21.5724 161.8192 -152.2178 66.3753 -165.3622 0.1835 -16.3696 -15.0404 -86.8874 46.5742 -139.5728 17.9796 -2.6019 -94.4447 -0.4295 -0.2597 0.5836 -0.7183 7.0156 17.1897 -106.5046 -42.8856 111.8477 14.5862 6.7217 113.7527 0.2034 -0.1582 -0.1005 -55.7509 10.7021 100.7555 -0.9496 24.9656 5.3461 -4.8711 -8.9529 -0.6670 3.2760 -9.1178 4.1723 -27.9763 -8.7937 86.2143 1.2324 39.0861 -2.1974 -7.1736 -2.0312 0.6882 0.6650 -10.7426 2.6346 
0.0000 93.1000 0.0000 52.0232 -45.7192 -31.3885 -71.0869 -0.0746 88.0595 85.2852 68.7033 -0.2783 3.0173 15.0885 7.6318 -113.5865 21.8379 160.0135 -155.3438 67.3883 -162.9630 0.4329 -16.1561 -15.2175 -82.3601 46.3199 -144.7499 17.7793 -2.1353 -92.6328 -0.3638 -0.5315 0.7552 -0.7757 6.7682 16.6731 -110.8256 -42.7305 106.9629 14.8328 6.7950 113.0835 0.4411 -0.4074 0.3539 -55.0942 11.1946 100.3102 -0.9901 25.3700 2.2584 -4.2090 -7.3867 -0.4283 3.5183 -11.0679 5.3349 -30.8711 -10.9893 83.4724 0.8987 35.7322 -3.8919 -6.2637 -0.2799 0.2276 0.3336 -8.6595 4.2086 
0.0000 93.1000 0.0000 55.5618 -43.8207 -27.2835 -71.1175 0.0610 88.0497 84.0030 68.8029 1.0480 3.7814 15.1447 8.1330 -112.3572 21.6554 158.6699 -155.6089 68.2244 -163.6964 -0.3133 -15.8341 -15.0034 -80.7528 45.7687 -146.6744 17.7741 -1.2062 -91.2650 -0.1872 0.1285 0.1186 -0.8531 7.1079 17.5047 -115.2265 -41.5600 102.8024 13.7492 6.0585 111.7601 -0.0168 0.3437 -0.1695 -53.6234 10.8774 99.7644 -0.2777 26.1583 -1.1308 -4.6759 -6.9906 -0.9422 3.7289 -12.2687 5.9478 -32.7420 -13.3905 80.4929 -0.2928 33.3506 -4.2613 -7.2550 1.3758 0.4937 -0.1586 -9.0333 2.4534 
0.0000 93.1000 0.0000 58.4031 -42.5956 -24.7930 -71.1398 0.0999 88.0568 83.1210 69.1618 1.4600 4.2585 15.8633 8.1586 -111.6452 21.3640 157.2083 -159.3140 68.7222 -159.1630 -0.5804 -15.8764 -15.1486 -77.8137 45.5696 -147.8073 18.1761 -1.2203 -90.4313 -0.0414 0.3039 -0.1202 -0.8353 7.4590 17.2583 -118.5230 -40.8964 98.4311 14.9779 5.9665 110.7474 -0.1786 0.5834 -0.2231 -53.4572 10.0056 99.0761 -1.1047 26.0449 -2.6791 -4.0000 -7.9238 -1.2701 3.9609 -12.0416 4.1560 -34.6658 -15.4614 78.5741 0.6783 31.8016 -4.0274 -6.0055 2.4368 0.0869 -0.0963 -6.6015 -1.9987 
0.0000 93.1000 0.0000 60.1765 -41.0378 -22.7535 -71.1507 0.1392 88.0734 81.1158 70.1615 1.9465 4.7141 16.4363 8.0355 -112.6620 21.4241 157.0227 -161.7962 69.4044 -159.0421 -0.7887 -15.7518 -15.0273 -75.8772 44.9929 -149.8218 18.0113 -1.2014 -90.5675 0.0964 0.4588 -0.4209 -0.8218 7.0848 17.5407 -122.3646 -41.8707 94.2152 15.3928 6.1199 110.0606 -0.5710 0.8227 -0.5962 -52.7842 9.1486 98.2147 -0.9930 27.2088 -4.3540 -3.0767 -9.0871 -1.6459 3.9730 -9.8602 3.3996 -35.9418 -16.3126 76.3554 0.7997 31.7366 -3.4194 -4.6923 1.4013 0.0708 0.0839 -4.4287 -4.9268 
0.0000 93.1000 0.0000 62.1125 -40.6788 -20.8020 -71.1478 0.1441 88.0800 81.2676 70.7807 0.9018 4.8540 16.8824 7.1521 -112.8006 21.7412 155.6303 -164.9454 69.2939 -156.7471 -0.7518 -15.9073 -15.1551 -74.4416 44.6139 -150.8231 18.6680 -1.2603 -91.9487 0.0525 0.4705 -0.4439 -0.9135 6.9958 18.6053 -125.6309 -40.7105 90.2762 16.4964 5.7911 110.0190 -0.3043 0.8419 -0.7014 -52.7624 8.8122 97.9227 -2.2139 29.7051 -5.0089 -2.0358 -9.9315 -1.9579 3.4374 -10.0949 4.7254 -37.9902 -16.9233 74.7233 0.9301 31.7070 -1.6924 -4.7522 -0.0107 0.4144 0.9122 -8.2112 -4.0485 
0.0000 93.1000 0.0000 64.1429 -39.8080 -18.6837 -71.1277 -0.0419 88.0977 82.1789 70.9763 -0.1899 4.4727 17.4410 6.9276 -113.7261 21.8605 156.8897 -167.2011 68.5055 -154.0792 0.2793 -15.9892 -15.0095 -72.9385 43.5873 -150.7913 18.3508 -1.1554 -92.6003 -0.0758 -0.4658 0.4064 -1.0392 7.0016 21.1032 -127.4125 -38.1634 87.9392 16.1736 5.9902 109.9264 0.6750 -0.2282 -0.0089 -50.5725 9.1483 96.5910 -2.0362 32.7953 -6.0883 -2.0741 -10.9048 -1.1578 3.0829 -10.0754 5.5101 -38.7418 -15.6920 75.3569 3.1802 31.8372 4.4215 -3.3640 0.2025 -0.0576 1.4076 -12.2553 -4.9598 
0.0000 93.1000 0.0000 65.1012 -38.9141 -15.4862 -71.1143 0.0056 88.0821 84.0082 71.2873 -0.9594 4.8044 17.9436 5.9875 -113.6681 22.5735 156.7136 -168.6817 68.1585 -153.0193 0.0431 -16.0292 -15.8778 -70.6741 43.4375 -150.6865 17.9976 -2.1976 -93.7800 -0.1637 -0.2051 0.2814 -1.2415 6.9206 23.1445 -128.3634 -35.8852 85.9752 15.5271 6.3136 109.6570 0.4811 0.0499 -0.0352 -49.4231 9.6218 96.0083 -3.0890 35.9004 -7.4048 -2.2501 -12.6540 -1.5964 2.7457 -9.2597 7.6933 -39.5549 -14.1560 76.5775 1.8559 31.6511 1.9559 -2.5522 -0.8285 0.1942 0.8710 -12.0960 -2.7330 
0.0000 93.1000 0.0000 65.8700 -37.5716 -14.2558 -71.1121 -0.0689 88.1041 81.9609 71.7791 -0.0148 4.8567 18.6200 5.4707 -113.9735 22.5326 156.4054 -171.3523 68.4141 -151.3716 0.3814 -15.8103 -15.7627 -70.0769 43.4430 -150.3351 18.9948 -2.2478 -94.0088 -0.2359 -0.6255 0.5321 -1.2921 6.8365 24.2627 -130.4778 -34.8086 83.1210 15.6893 5.8122 110.0239 0.6739 -0.3750 0.3291 -48.7569 9.5102 95.1913 -2.8196 38.7415 -9.2714 -2.0260 -13.8249 -1.2852 2.6115 -10.1636 9.5483 -40.4629 -14.6590 76.8907 0.9387 32.2028 -0.4124 -1.9400 -1.0982 -0.0891 -0.0788 -8.1555 0.1277 
0.0000 93.1000 0.0000 68.3405 -36.6430 -13.7412 -71.1084 -0.0814 88.1083 81.0361 71.6158 0.6078 5.6119 19.0673 4.9864 -113.6303 22.9223 155.9557 -175.0332 68.2381 -149.7360 0.5232 -15.6849 -15.9225 -69.2340 43.6613 -151.2937 18.8857 -2.4109 -94.8390 -0.0480 -0.7302 0.4113 -1.3768 6.6201 26.2638 -131.3391 -32.7048 82.4303 15.0691 5.8791 109.8651 0.7382 -0.4846 0.4727 -47.9186 9.0097 94.0096 -3.7564 40.7252 -11.0094 -1.8025 -14.8356 -1.3010 2.5837 -9.9440 10.5410 -41.8103 -16.0100 75.6011 1.6604 32.7649 0.6815 -2.3289 -0.6795 -0.1326 0.2472 -8.3565 -0.1399 
0.0000 93.1000 0.0000 69.2576 -35.6588 -12.4808 -71.1059 -0.1399 88.1172 81.0841 71.5254 0.7414 5.1480 19.0784 4.9244 -113.6953 22.8834 156.1760 -175.5883 68.0738 -149.4595 0.9228 -15.0499 -16.1826 -68.1713 43.5511 -150.9310 19.0719 -2.8846 -94.9136 -0.0664 -1.0419 0.5086 -1.3615 6.1857 27.5242 -130.5631 -30.7740 82.0550 13.8857 5.0079 109.8618 0.7609 -0.8213 0.6204 -46.9227 10.0363 93.6379 -3.9391 42.3307 -12.1111 -0.8826 -15.9217 -1.3795 2.2133 -10.2722 11.9207 -41.8608 -16.9019 73.8505 0.6431 33.7340 -0.0756 -2.0664 -0.8002 -0.2754 0.0941 -7.0888 2.0091 
0.0000 93.1000 0.0000 69.4803 -34.8045 -11.6302 -71.1044 -0.0932 88.1144 81.0469 71.0698 0.8270 5.4982 19.2865 4.9545 -113.8621 22.8895 157.6732 -178.6073 68.0006 -145.3477 0.7247 -14.7541 -17.1448 -67.8661 43.5783 -148.8248 18.1103 -3.2914 -96.6595 -0.3438 -0.7931 0.2521 -1.3415 6.5287 28.2483 -130.4095 -29.7756 81.9198 13.6741 5.0404 109.9209 0.6547 -0.5555 0.3226 -45.9371 10.2559 93.6111 -4.0839 43.6103 -13.1342 -1.0071 -15.5830 -1.5420 2.7833 -10.1619 12.0376 -41.7011 -16.8548 73.7427 0.5113 34.0239 0.0502 -2.0350 -0.6455 -0.2581 0.2191 -8.0921 2.1113 
0.0000 93.1000 0.0000 69.9493 -34.5548 -9.6131 -71.0976 -0.1033 88.1095 80.1020 71.0528 1.8158 5.6484 19.1778 5.0712 -113.7746 22.9264 157.3641 -177.2951 68.1148 -146.8646 0.8444 -14.6901 -17.0891 -68.0708 43.6213 -148.9795 18.0097 -3.3854 -96.8410 -0.4141 -0.8145 0.5083 -1.3142 6.5192 28.4846 -130.5867 -29.7666 81.0703 14.2325 5.3747 109.7352 0.7689 -0.6102 0.4514 -45.8407 11.0751 93.1604 -3.8968 45.8996 -13.2439 -1.1452 -15.9250 -1.5108 3.0807 -9.9687 12.3507 -42.5495 -16.8308 73.0139 0.7360 33.7685 -1.0074 -2.0600 -0.8142 -0.2509 0.2344 -7.7357 2.2221 
0.0000 93.1000 0.0000 71.1377 -35.0478 -9.7293 -71.1002 -0.1684 88.1350 80.2108 71.5654 1.9656 5.6271 19.3050 5.0447 -113.8150 22.6612 157.8451 -176.4368 68.5629 -147.8598 1.2068 -15.0309 -16.8932 -68.1310 43.4905 -148.7519 17.9306 -3.0525 -97.7237 0.0004 -1.1802 0.6952 -1.3984 6.1471 28.5740 -130.7338 -29.1125 81.7807 13.7707 5.2785 109.0802 0.9738 -0.9868 0.7210 -45.9699 11.1443 92.2720 -4.3932 46.5840 -12.5389 -0.9738 -16.5710 -1.1798 3.0117 -10.2472 11.7439 -42.4528 -16.1627 73.6407 1.0332 34.7296 -1.9212 -2.2062 -1.4618 -0.3777 0.1190 -7.2680 3.3183 
